<?xml version="1.0" standalone="no"?> <!DOCTYPE svg PUBLIC "-//W3C//DTD SVG 1.0//EN" "http://www.w3.org/TR/2001/REC-SVG-20010904/DTD/svg10.dtd" > <svg xmlns="http://www.w3.org/2000/svg" width="100%" height="100%">
<defs >
<font horiz-adv-x="1153" ><font-face
    font-family="Liry Cone Uyghurjin"
    units-per-em="2048"
    panose-1="3 0 5 0 0 0 0 0 0 0"
    ascent="2221"
    descent="-567"
    alphabetic="0" />
<missing-glyph horiz-adv-x="968" d="M200 1619H768Q801 1619 824 1596T848 1539V115Q848 82 825 59T768 35H200Q167 35 144 58T120 115V1539Q120 1572 143 1595T200 1619ZM258 115H710L484 713L258 115ZM768 189V1465L527 827L768 189ZM200 189L441 827L200 1465V189ZM710
1539H258L484 941L710 1539Z" />
<glyph unicode=" " glyph-name="space" horiz-adv-x="400" />
<glyph unicode="!" glyph-name="exclam" horiz-adv-x="388" d="M254 607Q254 582 237 565T194 547Q169 547 152 564T134 607L114 1275Q114 1308 137 1331T194 1355Q227 1355 250 1332T274 1275L254 607ZM194 219Q151 219 121 249T90 323Q90 366 120 396T194 427Q237
427 267 397T298 323Q298 280 268 250T194 219Z" />
<glyph unicode="&quot;" glyph-name="quotedbl" horiz-adv-x="590" d="M90 1275Q90 1308 113 1331T170 1355Q203 1355 226 1332T250 1275L234 923Q234 897 216 878T170 859Q143 859 125 878T106 923L90 1275ZM340 1275Q340 1308 363 1331T420 1355Q453 1355 476
1332T500 1275L484 923Q484 897 466 878T420 859Q393 859 375 878T356 923L340 1275Z" />
<glyph unicode="#" glyph-name="numbersign" horiz-adv-x="1111" d="M112 511Q82 511 61 532T40 583Q40 613 61 634T112 655H248L327 935H232Q202 935 181 956T160 1007Q160 1037 181 1058T232 1079H367L430 1302Q435 1320 449 1334Q470 1355 500 1355Q530 1355
551 1334T572 1283Q572 1272 569 1262L517 1079H753L816 1302Q821 1320 835 1334Q856 1355 886 1355Q916 1355 937 1334T958 1283Q958 1272 955 1262L903 1079H999Q1029 1079 1050 1058T1071 1007Q1071 977 1050 956T999 935H863L784 655H879Q909 655 930 634T951
583Q951 553 930 532T879 511H743L676 272Q671 254 657 240Q636 219 606 219Q576 219 555 240T534 291Q534 302 537 312L593 511H357L290 272Q285 254 271 240Q250 219 220 219Q190 219 169 240T148 291Q148 302 151 312L207 511H112ZM477 935L398 655H634L713
935H477Z" />
<glyph unicode="$" glyph-name="dollar" horiz-adv-x="968" d="M438 222Q303 239 202 340Q134 407 104 489Q100 501 100 515Q100 548 123 571T180 595Q213 595 237 572Q248 560 254 546Q274 498 314 458Q368 404 438 387V729L339 765Q278 787 227 831Q120 920
120 1048Q120 1176 227 1266Q316 1341 438 1353V1467Q438 1490 454 1506T494 1523Q517 1523 533 1507T550 1467V1350Q671 1331 763 1240Q793 1209 815 1175Q828 1155 828 1131Q828 1098 805 1075T748 1051Q715 1051 692 1075Q685 1081 680 1088Q667 1108 649 1127Q605
1171 550 1186V858L640 825Q703 802 756 759Q868 666 868 535Q868 404 759 312Q669 236 550 222V91Q550 68 534 52T494 35Q471 35 455 51T438 91V222ZM438 1191Q386 1182 347 1152Q290 1108 290 1048V1047Q290 986 347 943Q371 923 401 913L438 899V1191ZM550 383Q602
393 642 425Q698 470 698 534V535Q698 598 642 644Q616 665 585 676L550 689V383Z" />
<glyph unicode="%" glyph-name="percent" horiz-adv-x="1148" d="M294 907Q201 907 136 972T70 1131Q70 1224 135 1289T294 1355Q387 1355 452 1290T518 1131Q518 1038 453 973T294 907ZM294 1019Q340 1019 373 1052T406 1131Q406 1177 373 1210T294 1243Q248
1243 215 1210T182 1131Q182 1085 215 1052T294 1019ZM854 219Q761 219 696 284T630 443Q630 536 695 601T854 667Q947 667 1012 602T1078 443Q1078 350 1013 285T854 219ZM854 331Q900 331 933 364T966 443Q966 489 933 522T854 555Q808 555 775 522T742 443Q742
397 775 364T854 331ZM805 1326Q809 1333 815 1339Q831 1355 854 1355Q877 1355 893 1339T910 1299Q910 1285 904 1273L344 249Q340 242 334 236Q317 219 294 219Q271 219 255 235T238 275Q238 290 245 302L805 1326Z" />
<glyph unicode="&amp;" glyph-name="ampersand" horiz-adv-x="1086" d="M438 907H646V987L636 1067H726Q759 1067 782 1044T806 987V907H926Q959 907 982 884T1006 827Q1006 794 983 771T926 747H806V563Q806 487 853 433T966 379Q999 379 1022 356T1046 299Q1046
266 1023 243T966 219Q833 219 740 320Q729 331 720 342Q710 331 698 320Q590 219 438 219Q286 219 178 319T70 563Q70 689 178 778Q220 812 268 833Q246 847 227 864Q140 941 140 1051Q140 1177 227 1266T438 1355Q564 1355 657 1277Q660 1274 663 1272Q686 1248
686 1215Q686 1182 663 1159T606 1135Q577 1135 555 1153Q506 1195 438 1195Q381 1195 341 1153T300 1051Q300 992 340 950T438 907ZM438 747Q351 747 291 693T230 563Q230 487 290 433T438 379Q525 379 585 433T646 563V747H438Z" />
<glyph unicode="&apos;" glyph-name="quotesingle" horiz-adv-x="340" d="M90 1275Q90 1308 113 1331T170 1355Q203 1355 226 1332T250 1275L234 923Q234 897 216 878T170 859Q143 859 125 878T106 923L90 1275Z" />
<glyph unicode="(" glyph-name="parenleft" horiz-adv-x="600" d="M373 1319Q377 1325 384 1332Q407 1355 440 1355Q473 1355 496 1332T520 1275Q520 1251 507 1231Q320 949 320 589Q320 229 507 -53Q520 -72 520 -97Q520 -130 497 -153T440 -177Q407 -177 384
-153Q377 -147 373 -140Q160 180 160 589Q160 998 373 1319Z" />
<glyph unicode=")" glyph-name="parenright" horiz-adv-x="600" d="M93 1231Q80 1251 80 1275Q80 1308 103 1331T160 1355Q193 1355 217 1332Q223 1325 227 1319Q440 998 440 589Q440 180 227 -140Q223 -147 217 -153Q193 -177 160 -177Q127 -177 104 -154T80
-97Q80 -72 93 -53Q280 229 280 589Q280 949 93 1231Z" />
<glyph unicode="*" glyph-name="asterisk" horiz-adv-x="596" d="M352 1204L469 1253Q480 1257 490 1257Q504 1257 518 1250Q541 1238 549 1212Q553 1202 553 1191Q553 1177 546 1163Q534 1140 508 1132L385 1102L467 1007Q480 989 480 969Q480 936 453 917Q436
905 418 905Q384 905 364 931L298 1039L232 931Q212 905 178 905Q160 905 143 917Q116 936 116 969Q116 989 129 1007L211 1102L88 1132Q62 1140 50 1163Q43 1177 43 1191Q43 1202 47 1212Q55 1238 78 1250Q92 1257 106 1257Q116 1257 127 1253L244 1205L234 1331Q234
1358 252 1376T298 1395Q325 1395 343 1377T362 1331L352 1204Z" />
<glyph unicode="+" glyph-name="plus" horiz-adv-x="968" d="M212 571Q182 571 161 592T140 643Q140 673 161 694T212 715H412V915Q412 945 433 966T484 987Q514 987 535 966T556 915V715H756Q786 715 807 694T828 643Q828 613 807 592T756 571H556V371Q556 341
535 320T484 299Q454 299 433 320T412 371V571H212Z" />
<glyph unicode="," glyph-name="comma" horiz-adv-x="388" d="M194 427Q238 427 268 391T298 303Q298 160 199 61Q173 35 145 17Q136 11 125 11Q111 11 101 21T90 46Q90 61 101 71L106 75Q129 91 149 111Q198 160 216 222Q206 219 194 219Q150 219 120 249T90
323Q90 366 120 396T194 427Z" />
<glyph unicode="-" glyph-name="hyphen" horiz-adv-x="616" d="M176 527Q145 527 123 549T100 603Q100 634 122 656T176 679H440Q471 679 493 657T516 603Q516 572 494 550T440 527H176Z" />
<glyph unicode="." glyph-name="period" horiz-adv-x="388" d="M194 219Q151 219 121 249T90 323Q90 366 120 396T194 427Q237 427 267 397T298 323Q298 280 268 250T194 219Z" />
<glyph unicode="/" glyph-name="slash" horiz-adv-x="720" d="M528 1310Q534 1322 544 1332Q567 1355 600 1355Q633 1355 656 1332T680 1275Q680 1256 672 1240L192 263Q186 252 178 243Q153 219 120 219Q87 219 64 242T40 299Q40 318 48 335L528 1310Z" />
<glyph unicode="0" glyph-name="zero" horiz-adv-x="968" d="M84 787Q84 1355 484 1355Q884 1355 884 787Q884 219 484 219Q84 219 84 787ZM484 1195Q244 1195 244 787Q244 379 484 379Q724 379 724 787Q724 1195 484 1195Z" />
<glyph unicode="1" glyph-name="one" horiz-adv-x="968" d="M619 299Q619 266 596 243T539 219Q506 219 483 242T459 299V1124L249 994Q232 983 211 983Q181 983 160 1004T139 1055Q139 1085 160 1106Q166 1112 174 1117L542 1345Q558 1355 579 1355Q596 1355
607 1344T619 1315V299Z" />
<glyph unicode="2" glyph-name="two" horiz-adv-x="968" d="M288 1050Q283 1031 268 1016Q244 992 211 992Q178 992 155 1015T131 1072Q131 1084 134 1095Q159 1181 227 1249Q333 1355 484 1355Q630 1355 733 1252T837 1002Q837 861 741 760L388 389H777Q810 389
833 366T857 309Q857 276 834 253T777 229H201Q168 229 145 252T121 309Q121 341 143 364L624 869Q677 925 677 1002Q677 1082 621 1138T484 1195Q399 1195 340 1135Q302 1097 288 1050Z" />
<glyph unicode="3" glyph-name="three" horiz-adv-x="968" d="M404 747Q371 747 348 770T324 827Q324 860 347 883T404 907H484Q554 907 603 949T652 1051Q652 1110 603 1152T484 1195Q383 1195 307 1133Q285 1115 256 1115Q223 1115 200 1138T176 1195Q176 1228
200 1252Q203 1255 208 1259Q325 1355 484 1355Q620 1355 716 1266T812 1051Q812 941 716 864Q691 844 663 829Q706 809 744 778Q852 689 852 563Q852 420 744 320T484 219Q294 219 159 354Q147 366 136 378Q116 401 116 431Q116 464 139 487T196 511Q229 511 253
488L257 484Q265 475 273 467Q360 379 484 379Q571 379 631 433T692 563Q692 639 632 693T484 747H404Z" />
<glyph unicode="4" glyph-name="four" horiz-adv-x="968" d="M744 299Q744 266 721 243T664 219Q631 219 608 242T584 299V467H136Q106 467 85 488T64 539Q64 563 77 581L605 1324Q609 1330 613 1334Q634 1355 664 1355Q697 1355 720 1332T744 1275V619H828Q860
619 882 597T904 543Q904 512 882 490T828 467H744V299ZM282 619H584V1045L282 619Z" />
<glyph unicode="5" glyph-name="five" horiz-adv-x="968" d="M724 1345Q757 1345 780 1322T804 1265Q804 1232 781 1209T724 1185H342L294 897Q391 959 514 959Q659 959 761 857T864 609Q864 447 747 333T464 219Q292 219 170 341Q140 371 117 405Q104 424 104
449Q104 482 127 505T184 529Q217 529 241 506Q246 500 251 493Q265 472 284 454Q358 379 464 379Q564 379 634 446T704 609Q704 687 643 743Q588 792 514 798Q504 799 494 799Q350 799 242 715Q221 699 194 699Q161 699 138 722T114 779Q114 786 115 793L195 1279Q199
1303 218 1322Q241 1345 274 1345H724Z" />
<glyph unicode="6" glyph-name="six" horiz-adv-x="968" d="M712 594Q712 683 649 746T497 809Q408 809 345 746T282 594Q282 505 345 442T497 379Q586 379 649 442T712 594ZM820 1230Q842 1207 842 1175Q842 1142 819 1119T762 1095Q729 1095 705 1118L700 1123Q629
1195 527 1195Q257 1195 257 787Q277 843 322 888Q403 969 517 969Q664 969 768 860T872 594Q872 438 759 329T487 219Q336 219 229 328Q159 400 133 491Q97 612 97 787Q97 1355 527 1355Q695 1355 814 1236L820 1230Z" />
<glyph unicode="7" glyph-name="seven" horiz-adv-x="968" d="M196 1185Q163 1185 140 1208T116 1265Q116 1298 139 1321T196 1345H772Q805 1345 828 1322T852 1265Q852 1245 844 1229L348 263Q342 252 333 243Q309 219 276 219Q243 219 220 242T196 299Q196 319
205 335L641 1185H196Z" />
<glyph unicode="8" glyph-name="eight" horiz-adv-x="968" d="M484 1219Q405 1219 350 1174T294 1065V1063Q295 1000 350 956Q411 909 473 892Q546 912 619 966Q674 1009 674 1071V1078Q671 1135 619 1176Q563 1219 484 1219ZM484 355Q580 355 647 405T714 525V528Q713
596 647 645Q550 713 453 741Q387 724 321 673Q254 618 254 541V534Q257 462 321 410Q388 355 484 355ZM680 796Q722 776 760 747Q874 656 874 528Q874 400 760 310T484 219Q323 219 209 311T94 534Q94 665 209 757Q247 788 291 808L301 813Q267 831 237 857Q134
942 134 1063Q134 1184 236 1269T484 1355Q629 1355 731 1274T834 1078Q834 963 732 882Q701 858 666 841L625 822L680 796Z" />
<glyph unicode="9" glyph-name="nine" horiz-adv-x="968" d="M256 980Q256 891 319 828T471 765Q560 765 623 828T686 980Q686 1069 623 1132T471 1195Q382 1195 319 1132T256 980ZM148 344Q126 367 126 399Q126 432 149 455T206 479Q239 479 263 456L268 451Q339
379 441 379Q711 379 711 787Q691 731 646 686Q565 605 451 605Q304 605 200 714T96 980Q96 1136 209 1245T481 1355Q632 1355 739 1246Q809 1174 835 1083Q871 962 871 787Q871 219 441 219Q273 219 154 338L148 344Z" />
<glyph unicode=":" glyph-name="colon" horiz-adv-x="388" d="M194 443Q151 443 121 473T90 547Q90 590 120 620T194 651Q237 651 267 621T298 547Q298 504 268 474T194 443ZM194 1003Q151 1003 121 1033T90 1107Q90 1150 120 1180T194 1211Q237 1211 267 1181T298
1107Q298 1064 268 1034T194 1003Z" />
<glyph unicode=";" glyph-name="semicolon" horiz-adv-x="388" d="M194 779Q151 779 121 809T90 883Q90 926 120 956T194 987Q237 987 267 957T298 883Q298 840 268 810T194 779ZM194 427Q238 427 268 391T298 303Q298 160 199 61Q173 35 145 17Q136 11 125 11Q111
11 101 21T90 46Q90 61 101 71L106 75Q129 91 149 111Q198 160 216 222Q206 219 194 219Q150 219 120 249T90 323Q90 366 120 396T194 427Z" />
<glyph unicode="&lt;" glyph-name="less" horiz-adv-x="968" d="M724 980Q739 987 756 987Q786 987 807 966T828 915Q828 885 807 864Q798 855 788 850L372 643L788 436Q798 430 807 422Q828 401 828 371Q828 341 807 320T756 299Q739 299 724 306L180 578Q170
583 161 592Q140 613 140 643Q140 673 161 694Q170 703 180 708L724 980Z" />
<glyph unicode="=" glyph-name="equal" horiz-adv-x="968" d="M212 411Q182 411 161 432T140 483Q140 513 161 534T212 555H756Q786 555 807 534T828 483Q828 453 807 432T756 411H212ZM212 731Q182 731 161 752T140 803Q140 833 161 854T212 875H756Q786 875
807 854T828 803Q828 773 807 752T756 731H212Z" />
<glyph unicode="&gt;" glyph-name="greater" horiz-adv-x="968" d="M244 980L788 708Q798 703 807 694Q828 673 828 643Q828 613 807 592Q798 583 788 578L244 306Q229 299 212 299Q182 299 161 320T140 371Q140 401 161 422Q170 430 180 436L596 643L180 850Q170
855 161 864Q140 885 140 915Q140 945 161 966T212 987Q229 987 244 980Z" />
<glyph unicode="?" glyph-name="question" horiz-adv-x="695" d="M312 1355Q446 1355 540 1261T635 1032Q635 898 541 804Q476 739 392 718V627Q392 594 369 571T312 547Q279 547 256 570T232 627V789Q232 822 255 845T312 869Q380 869 427 916T475 1032Q475 1100
428 1147T312 1195Q245 1195 197 1147Q173 1124 140 1124Q107 1124 84 1147T60 1204Q60 1237 84 1261Q178 1355 312 1355ZM208 323Q208 366 238 396T312 427Q355 427 385 397T416 323Q416 280 386 250T312 219Q269 219 239 249T208 323Z" />
<glyph unicode="@" glyph-name="at" horiz-adv-x="1460" d="M560 695Q560 625 609 575T730 525Q801 525 850 575T900 695Q900 765 851 815T730 865Q659 865 610 815T560 695ZM900 926Q900 951 918 969T961 987Q986 987 1004 969T1022 926V601Q1022 570 1044 548T1098
525Q1169 525 1218 575T1268 730Q1268 917 1111 1075T730 1233Q506 1233 349 1075T192 695Q192 473 349 315T730 157Q897 157 1026 245Q1041 255 1060 255Q1085 255 1103 237T1121 194Q1121 169 1103 151Q1099 147 1094 143Q934 35 730 35Q457 35 264 228T70 695Q70
969 263 1162T730 1355Q1003 1355 1196 1162T1390 730Q1390 574 1305 489T1098 403Q1016 403 958 461Q932 487 918 517Q907 502 895 488Q820 403 715 403Q600 403 519 488T438 695Q438 816 519 901T715 987Q820 987 895 902Q898 899 900 896V926Z" />
<glyph unicode="A" glyph-name="A" horiz-adv-x="1032" d="M740 511H292L194 269Q188 254 177 243Q153 219 120 219Q87 219 64 242T40 299Q40 315 46 330L442 1306Q448 1320 460 1332Q483 1355 516 1355Q549 1355 573 1332Q584 1320 590 1306L986 330Q992 315
992 299Q992 266 969 243T912 219Q879 219 856 243Q844 254 838 269L740 511ZM351 655H681L516 1063L351 655Z" />
<glyph unicode="B" glyph-name="B" horiz-adv-x="966" d="M290 735V389H557Q625 392 674 440Q723 488 726 554V562Q726 634 674 684T547 735H290ZM210 229Q177 229 154 252T130 309V1265Q130 1298 153 1321T210 1345H497Q638 1345 737 1256T836 1040Q836 915 716
827Q750 809 780 784Q896 689 896 554Q896 419 797 324T557 229H210ZM290 1185V879H487Q561 879 613 924T666 1032V1040Q662 1098 614 1140Q565 1182 497 1185H290Z" />
<glyph unicode="C" glyph-name="C" horiz-adv-x="1042" d="M969 1250L979 1242Q1002 1218 1002 1185Q1002 1152 979 1129T922 1105Q896 1105 875 1120Q773 1195 638 1195Q468 1195 349 1075T230 787Q230 619 349 499T638 379Q773 379 875 454Q896 469 922 469Q955
469 978 446T1002 389Q1002 356 979 333Q974 328 969 324Q825 219 638 219Q403 219 237 385T70 787Q70 1023 236 1189T638 1355Q825 1355 969 1250Z" />
<glyph unicode="D" glyph-name="D" horiz-adv-x="1126" d="M290 389H498Q664 389 780 506T896 787Q896 951 780 1068T498 1185H290V389ZM210 229Q177 229 154 252T130 309V1265Q130 1298 153 1321T210 1345H498Q729 1345 892 1182T1056 787Q1056 555 893 392T498
229H210Z" />
<glyph unicode="E" glyph-name="E" horiz-adv-x="842" d="M722 389Q755 389 778 366T802 309Q802 276 779 253T722 229H210Q177 229 154 252T130 309V1265Q130 1298 153 1321T210 1345H722Q755 1345 778 1322T802 1265Q802 1232 779 1209T722 1185H290V867H682Q715
867 738 844T762 787Q762 754 739 731T682 707H290V389H722Z" />
<glyph unicode="F" glyph-name="F" horiz-adv-x="842" d="M722 1345Q755 1345 778 1322T802 1265Q802 1232 779 1209T722 1185H290V867H682Q715 867 738 844T762 787Q762 754 739 731T682 707H290V299Q290 266 267 243T210 219Q177 219 154 242T130 299V1265Q130
1298 153 1321T210 1345H722Z" />
<glyph unicode="G" glyph-name="G" horiz-adv-x="1276" d="M718 707Q685 707 662 730T638 787Q638 820 661 843T718 867H1126Q1159 867 1182 844T1206 787Q1206 551 1040 385T638 219Q403 219 237 385T70 787Q70 1023 236 1189T638 1355Q825 1355 969 1250L979
1242Q1002 1218 1002 1185Q1002 1152 979 1129T922 1105Q896 1105 875 1120Q773 1195 638 1195Q468 1195 349 1075T230 787Q230 619 349 499T638 379Q808 379 927 499Q1017 589 1039 707H718Z" />
<glyph unicode="H" glyph-name="H" horiz-adv-x="1092" d="M130 1275Q130 1308 153 1331T210 1355Q243 1355 266 1332T290 1275V867H802V1275Q802 1308 825 1331T882 1355Q915 1355 938 1332T962 1275V299Q962 266 939 243T882 219Q849 219 826 242T802 299V707H290V299Q290
266 267 243T210 219Q177 219 154 242T130 299V1275Z" />
<glyph unicode="I" glyph-name="I" horiz-adv-x="420" d="M290 299Q290 266 267 243T210 219Q177 219 154 242T130 299V1275Q130 1308 153 1331T210 1355Q243 1355 266 1332T290 1275V299Z" />
<glyph unicode="J" glyph-name="J" horiz-adv-x="420" d="M130 1275Q130 1308 153 1331T210 1355Q243 1355 266 1332T290 1275V143Q290 10 197 -83T-30 -177Q-65 -177 -96 -170Q-119 -166 -136 -148Q-160 -125 -160 -92Q-160 -59 -137 -36T-80 -12Q-71 -12 -63
-14Q-47 -17 -30 -17Q36 -17 83 30T130 143V1275Z" />
<glyph unicode="K" glyph-name="K" horiz-adv-x="922" d="M290 634V299Q290 266 267 243T210 219Q177 219 154 242T130 299V1275Q130 1308 153 1331T210 1355Q243 1355 266 1332T290 1275V863L745 1331L746 1332Q769 1355 802 1355Q835 1355 858 1332T882 1275Q882
1243 860 1220L475 825L864 349Q882 328 882 299Q882 266 859 243T802 219Q769 219 746 242Q742 246 740 249L363 709L290 634Z" />
<glyph unicode="L" glyph-name="L" horiz-adv-x="842" d="M210 229Q177 229 154 252T130 309V1275Q130 1308 153 1331T210 1355Q243 1355 266 1332T290 1275V389H722Q755 389 778 366T802 309Q802 276 779 253T722 229H210Z" />
<glyph unicode="M" glyph-name="M" horiz-adv-x="1444" d="M290 299Q290 266 267 243T210 219Q177 219 154 242T130 299V1275Q130 1308 153 1331T210 1355Q243 1355 267 1332Q274 1324 280 1315L722 541L1164 1315Q1170 1324 1177 1332Q1201 1355 1234 1355Q1267
1355 1290 1332T1314 1275V299Q1314 266 1291 243T1234 219Q1201 219 1178 242T1154 299V974L792 340Q787 331 779 323Q755 299 722 299Q689 299 665 323Q657 331 652 340L290 974V299Z" />
<glyph unicode="N" glyph-name="N" horiz-adv-x="1092" d="M290 299Q290 266 267 243T210 219Q177 219 154 242T130 299V1275Q130 1308 153 1331T210 1355Q243 1355 267 1332Q272 1326 276 1320L802 555V1275Q802 1308 825 1331T882 1355Q915 1355 938 1332T962
1275V299Q962 266 939 243T882 219Q849 219 825 243Q820 248 816 254L290 1018V299Z" />
<glyph unicode="O" glyph-name="O" horiz-adv-x="1276" d="M70 787Q70 1023 236 1189T638 1355Q873 1355 1039 1189T1206 787Q1206 551 1040 385T638 219Q403 219 237 385T70 787ZM638 1195Q468 1195 349 1075T230 787Q230 619 349 499T638 379Q808 379 927 499T1046
787Q1046 955 927 1075T638 1195Z" />
<glyph unicode="P" glyph-name="P" horiz-adv-x="966" d="M290 1185V827H557Q631 827 683 879T736 1006Q736 1080 684 1132T557 1185H290ZM290 667V299Q290 266 267 243T210 219Q177 219 154 242T130 299V1265Q130 1298 153 1321T210 1345H557Q698 1345 797 1246T896
1006Q896 865 797 766T557 667H290Z" />
<glyph unicode="Q" glyph-name="Q" horiz-adv-x="1276" d="M867 448Q898 470 927 499Q1046 619 1046 787Q1046 955 927 1075T638 1195Q468 1195 349 1075T230 787Q230 619 349 499T638 379Q687 379 733 389L648 525Q638 542 638 563Q638 593 659 614T710 635Q740
635 761 614Q767 608 772 600L867 448ZM821 247Q735 219 638 219Q403 219 237 385T70 787Q70 1023 236 1189T638 1355Q873 1355 1039 1189T1206 787Q1206 551 1040 385Q998 343 951 312L1056 144Q1066 128 1066 107Q1066 77 1045 56T994 35Q964 35 943 56Q937 62
932 69L821 247Z" />
<glyph unicode="R" glyph-name="R" horiz-adv-x="966" d="M290 1185V827H557Q631 827 683 879T736 1006Q736 1080 684 1132T557 1185H290ZM842 345Q856 325 856 299Q856 266 833 243T776 219Q743 219 720 243Q714 248 710 254L420 667H290V299Q290 266 267 243T210
219Q177 219 154 242T130 299V1265Q130 1298 153 1321T210 1345H557Q698 1345 797 1246T896 1006Q896 865 797 766Q718 687 613 671L842 345Z" />
<glyph unicode="S" glyph-name="S" horiz-adv-x="908" d="M74 489Q70 501 70 515Q70 548 93 571T150 595Q183 595 207 572Q218 560 224 546Q244 498 284 458Q358 383 464 379H474Q555 379 611 424T668 534V535Q668 598 612 644Q586 665 555 676L309 765Q248 787
197 831Q90 920 90 1048Q90 1176 196 1265T454 1355Q617 1355 733 1240Q763 1209 785 1175Q798 1155 798 1131Q798 1098 775 1075T718 1051Q685 1051 662 1075Q655 1081 650 1088Q637 1108 619 1127Q551 1195 454 1195Q373 1195 317 1152Q260 1108 260 1048V1047Q260
986 317 943Q341 923 371 913L610 825Q673 802 726 759Q838 666 838 535Q838 404 729 312T464 219Q293 219 172 340Q104 407 74 489Z" />
<glyph unicode="T" glyph-name="T" horiz-adv-x="912" d="M812 1345Q845 1345 868 1322T892 1265Q892 1232 869 1209T812 1185H536V299Q536 266 513 243T456 219Q423 219 400 242T376 299V1185H100Q67 1185 44 1208T20 1265Q20 1298 43 1321T100 1345H812Z" />
<glyph unicode="U" glyph-name="U" horiz-adv-x="1092" d="M130 1275Q130 1308 153 1331T210 1355Q243 1355 266 1332T290 1275V635Q290 529 364 454T546 379Q653 379 727 454T802 635V1275Q802 1308 825 1331T882 1355Q915 1355 938 1332T962 1275V635Q962 462
840 341T546 219Q374 219 252 340T130 635V1275Z" />
<glyph unicode="V" glyph-name="V" horiz-adv-x="952" d="M757 1303Q763 1319 776 1332Q799 1355 832 1355Q865 1355 888 1332T912 1275Q912 1260 907 1247L551 272Q546 256 533 243Q509 219 476 219Q443 219 420 243Q406 256 401 272L45 1247Q40 1260 40 1275Q40
1308 63 1331T120 1355Q153 1355 177 1332Q189 1319 195 1303L476 533L757 1303Z" />
<glyph unicode="W" glyph-name="W" horiz-adv-x="1544" d="M44 1249Q40 1261 40 1275Q40 1308 63 1331T120 1355Q153 1355 177 1332Q190 1318 196 1301L446 553L696 1302Q702 1318 716 1332Q739 1355 772 1355Q805 1355 829 1332Q842 1318 848 1302L1098 553L1348
1301Q1354 1318 1367 1332Q1391 1355 1424 1355Q1457 1355 1480 1332T1504 1275Q1504 1261 1500 1249L1174 273Q1168 256 1154 243Q1131 219 1098 219Q1065 219 1041 243Q1028 256 1022 273L772 1021L522 273Q516 256 503 243Q479 219 446 219Q413 219 390 243Q376
256 370 273L44 1249Z" />
<glyph unicode="X" glyph-name="X" horiz-adv-x="952" d="M55 1228Q40 1248 40 1275Q40 1308 63 1331T120 1355Q153 1355 176 1332Q181 1327 185 1322L476 923L767 1322Q771 1327 777 1332Q799 1355 832 1355Q865 1355 888 1332T912 1275Q912 1248 897 1228L575
787L897 346Q912 326 912 299Q912 266 889 243T832 219Q799 219 775 243Q771 247 767 252L476 651L185 252Q181 247 178 243Q153 219 120 219Q87 219 64 242T40 299Q40 326 55 346L377 787L55 1228Z" />
<glyph unicode="Y" glyph-name="Y" horiz-adv-x="952" d="M556 299Q556 266 533 243T476 219Q443 219 420 242T396 299V723L53 1231Q40 1250 40 1275Q40 1308 63 1331T120 1355Q153 1355 177 1332Q182 1326 186 1320L476 890L765 1319Q770 1326 776 1332Q799 1355
832 1355Q865 1355 888 1332T912 1275Q912 1250 898 1230L556 723V299Z" />
<glyph unicode="Z" glyph-name="Z" horiz-adv-x="912" d="M120 1185Q87 1185 64 1208T40 1265Q40 1298 63 1321T120 1345H792Q825 1345 848 1322T872 1265Q872 1240 858 1220L274 389H792Q825 389 848 366T872 309Q872 276 849 253T792 229H120Q87 229 64 252T40
309Q40 335 54 355L637 1185H120Z" />
<glyph unicode="[" glyph-name="bracketleft" horiz-adv-x="640" d="M480 -7Q513 -7 536 -30T560 -87Q560 -120 537 -143T480 -167H240Q207 -167 184 -144T160 -87V1265Q160 1298 183 1321T240 1345H480Q513 1345 536 1322T560 1265Q560 1232 537 1209T480 1185H320V-7H480Z"
/>
<glyph unicode="\" glyph-name="backslash" horiz-adv-x="720" d="M48 1240Q40 1256 40 1275Q40 1308 63 1331T120 1355Q153 1355 177 1332Q186 1322 192 1310L672 335Q680 318 680 299Q680 266 657 243T600 219Q567 219 543 243Q534 252 528 263L48 1240Z" />
<glyph unicode="]" glyph-name="bracketright" horiz-adv-x="640" d="M160 -7H320V1185H160Q127 1185 104 1208T80 1265Q80 1298 103 1321T160 1345H400Q433 1345 456 1322T480 1265V-87Q480 -120 457 -143T400 -167H160Q127 -167 104 -144T80 -87Q80 -54 103
-31T160 -7Z" />
<glyph unicode="^" glyph-name="circumflex" horiz-adv-x="596" d="M149 935Q145 929 140 924Q123 907 100 907Q77 907 61 923T44 963Q44 979 52 991L250 1327Q253 1333 259 1339Q275 1355 298 1355Q321 1355 338 1339Q343 1333 347 1327L545 991Q552 978 552
963Q552 940 536 924T496 907Q473 907 457 924Q451 929 448 935L298 1189L149 935Z" />
<glyph unicode="_" glyph-name="underscore" horiz-adv-x="768" d="M768 149Q791 149 807 133T824 93Q824 70 808 54T768 37H0Q-23 37 -39 53T-56 93Q-56 116 -40 132T0 149H768Z" />
<glyph unicode="`" glyph-name="grave" horiz-adv-x="596" d="M466 907Q443 907 426 923L90 1260Q74 1277 74 1300Q74 1323 91 1339T131 1355Q154 1355 169 1339L506 1003Q522 986 522 963Q522 940 506 924T466 907Z" />
<glyph unicode="a" glyph-name="a" horiz-adv-x="948" d="M220 603Q220 511 285 445T444 379Q537 379 602 445T668 603Q668 695 603 761T444 827Q351 827 286 761T220 603ZM748 219Q715 219 692 242T668 299V339Q659 328 649 317Q556 219 424 219Q273 219 167
331T60 603Q60 763 166 875T424 987Q556 987 649 889Q659 878 668 867V907Q668 940 691 963T748 987Q781 987 804 964T828 907V299L838 219H748Z" />
<glyph unicode="b" glyph-name="b" horiz-adv-x="948" d="M504 827Q411 827 346 761T280 603Q280 511 345 445T504 379Q597 379 662 445T728 603Q728 695 663 761T504 827ZM120 1355L110 1435H200Q233 1435 256 1412T280 1355V867Q289 878 299 889Q392 987 524
987Q675 987 781 875T888 603Q888 443 782 331T524 219Q392 219 299 317Q289 328 280 339V299Q280 266 257 243T200 219Q167 219 144 242T120 299V1355Z" />
<glyph unicode="c" glyph-name="c" horiz-adv-x="764" d="M693 905Q697 902 701 898Q724 874 724 841Q724 808 701 785T644 761Q617 761 596 777Q532 827 444 827Q350 827 285 762T220 603Q220 510 285 445T444 379Q532 379 596 429Q616 445 644 445Q677 445 700
422T724 365Q724 332 701 309Q697 305 693 302Q587 219 444 219Q285 219 173 331T60 603Q60 763 172 875T444 987Q587 987 693 905Z" />
<glyph unicode="d" glyph-name="d" horiz-adv-x="948" d="M444 827Q351 827 286 761T220 603Q220 511 285 445T444 379Q537 379 602 445T668 603Q668 695 603 761T444 827ZM748 219Q715 219 692 242T668 299V339Q659 328 649 317Q556 219 424 219Q273 219 167
331T60 603Q60 763 166 875T424 987Q556 987 649 889Q659 878 668 867V1355Q668 1388 691 1411T748 1435Q781 1435 804 1412T828 1355V299L838 219H748Z" />
<glyph unicode="e" glyph-name="e" horiz-adv-x="860" d="M724 531H223Q240 480 282 439Q351 371 451 371Q548 371 616 435Q638 455 667 455Q698 455 720 433T743 379Q743 348 721 326L719 324Q607 219 451 219Q289 219 175 331T60 603Q60 763 168 875T430 987Q584
987 692 876T800 607Q800 576 778 554T724 531ZM222 675H639Q624 727 585 768Q521 835 430 835Q339 835 276 767Q237 726 222 675Z" />
<glyph unicode="f" glyph-name="f" horiz-adv-x="580" d="M100 817Q67 817 44 840T20 897Q20 930 43 953T100 977H200V1115Q200 1248 293 1341T520 1435Q553 1435 576 1412T600 1355Q600 1322 577 1299T520 1275Q454 1275 407 1228T360 1115V977H480Q513 977 536
954T560 897Q560 864 537 841T480 817H360V299Q360 266 337 243T280 219Q247 219 224 242T200 299V817H100Z" />
<glyph unicode="g" glyph-name="g" horiz-adv-x="948" d="M444 827Q351 827 286 761T220 603Q220 511 285 445T444 379Q537 379 602 445T668 603Q668 695 603 761T444 827ZM668 219V339Q659 328 649 317Q556 219 424 219Q273 219 167 331T60 603Q60 763 166 875T424
987Q556 987 649 889Q659 878 668 867V907Q668 940 691 963T748 987Q781 987 804 964T828 907V219Q828 54 713 -61T432 -177Q273 -177 161 -65Q134 -39 114 -10Q100 10 100 35Q100 68 123 91T180 115Q213 115 237 92Q242 86 246 80Q258 64 273 49Q338 -17 432 -17Q531
-17 599 52T668 219Z" />
<glyph unicode="h" glyph-name="h" horiz-adv-x="928" d="M200 1435Q233 1435 256 1412T280 1355V867Q293 885 309 902Q390 987 504 987Q630 987 719 898T808 683V299Q808 266 785 243T728 219Q695 219 672 242T648 299V663Q648 731 600 779T484 827Q399 827 340
767T280 623V299Q280 266 257 243T200 219Q167 219 144 242T120 299V1355L110 1435H200Z" />
<glyph unicode="i" glyph-name="i" horiz-adv-x="400" d="M200 1155Q158 1155 129 1184T100 1255Q100 1297 129 1326T200 1355Q242 1355 271 1326T300 1255Q300 1213 271 1184T200 1155ZM280 299Q280 266 257 243T200 219Q167 219 144 242T120 299V907L110 987H200Q233
987 256 964T280 907V299Z" />
<glyph unicode="j" glyph-name="j" horiz-adv-x="400" d="M200 1155Q158 1155 129 1184T100 1255Q100 1297 129 1326T200 1355Q242 1355 271 1326T300 1255Q300 1213 271 1184T200 1155ZM200 987Q233 987 256 964T280 907V143Q280 10 187 -83T-40 -177Q-73 -177
-96 -154T-120 -97Q-120 -64 -97 -41T-40 -17Q26 -17 73 30T120 143V907L110 987H200Z" />
<glyph unicode="k" glyph-name="k" horiz-adv-x="808" d="M280 299Q280 266 257 243T200 219Q167 219 144 242T120 299V1355L110 1435H200Q233 1435 256 1412T280 1355V659L636 968Q658 987 688 987Q721 987 744 964T768 907Q768 874 745 851Q742 848 740 847L499
638L748 352Q768 330 768 299Q768 266 745 243T688 219Q655 219 632 243Q629 245 627 247L378 533L280 447V299Z" />
<glyph unicode="l" glyph-name="l" horiz-adv-x="400" d="M280 299Q280 266 257 243T200 219Q167 219 144 242T120 299V1355L110 1435H200Q233 1435 256 1412T280 1355V299Z" />
<glyph unicode="m" glyph-name="m" horiz-adv-x="1436" d="M280 299Q280 266 257 243T200 219Q167 219 144 242T120 299V907L110 987H200Q233 987 256 964T280 907V867Q294 889 313 909Q388 987 494 987Q620 987 709 898Q735 872 753 843Q771 872 797 898Q886
987 1012 987Q1138 987 1227 898T1316 683V299Q1316 266 1293 243T1236 219Q1203 219 1180 242T1156 299V663Q1156 731 1108 779T992 827Q911 827 855 767T798 623V299Q798 266 775 243T718 219Q685 219 662 242T638 299V663Q638 731 590 779T474 827Q393 827 337
767T280 623V299Z" />
<glyph unicode="n" glyph-name="n" horiz-adv-x="928" d="M200 987Q233 987 256 964T280 907V867Q293 885 309 902Q390 987 504 987Q630 987 719 898T808 683V299Q808 266 785 243T728 219Q695 219 672 242T648 299V663Q648 731 600 779T484 827Q399 827 340 767T280
623V299Q280 266 257 243T200 219Q167 219 144 242T120 299V907L110 987H200Z" />
<glyph unicode="o" glyph-name="o" horiz-adv-x="888" d="M60 603Q60 763 172 875T444 987Q604 987 716 875T828 603Q828 443 716 331T444 219Q285 219 173 331T60 603ZM444 827Q350 827 285 762T220 603Q220 510 285 445T444 379Q538 379 603 444T668 603Q668
696 603 761T444 827Z" />
<glyph unicode="p" glyph-name="p" horiz-adv-x="948" d="M504 827Q411 827 346 761T280 603Q280 511 345 445T504 379Q597 379 662 445T728 603Q728 695 663 761T504 827ZM120 907L110 987H200Q233 987 256 964T280 907V867Q289 878 299 889Q392 987 524 987Q675
987 781 875T888 603Q888 443 782 331T524 219Q392 219 299 317Q289 328 280 339V-97Q280 -130 257 -153T200 -177Q167 -177 144 -154T120 -97V907Z" />
<glyph unicode="q" glyph-name="q" horiz-adv-x="948" d="M444 827Q351 827 286 761T220 603Q220 511 285 445T444 379Q537 379 602 445T668 603Q668 695 603 761T444 827ZM828 -97L838 -177H748Q715 -177 692 -154T668 -97V339Q659 328 649 317Q556 219 424 219Q273
219 167 331T60 603Q60 763 166 875T424 987Q556 987 649 889Q659 878 668 867V907Q668 940 691 963T748 987Q781 987 804 964T828 907V-97Z" />
<glyph unicode="r" glyph-name="r" horiz-adv-x="674" d="M120 907L110 987H200Q233 987 256 964T280 907V827Q293 851 309 874Q390 987 504 987Q563 987 613 968Q628 962 641 950Q664 926 664 893Q664 860 641 837T584 813Q569 813 555 818Q532 827 504 827Q411
827 346 750T280 563V299Q280 266 257 243T200 219Q167 219 144 242T120 299V907Z" />
<glyph unicode="s" glyph-name="s" horiz-adv-x="696" d="M572 902L574 900Q596 877 596 846Q596 815 574 793T520 770Q491 770 470 789Q419 835 348 835Q299 835 266 817T232 771V770Q233 745 266 726Q275 721 285 717L469 651Q514 635 552 605Q636 539 636 445Q636
351 555 285T358 219Q223 219 128 314Q90 351 68 394Q60 409 60 427Q60 457 81 478T132 499Q162 499 183 478Q190 471 195 463Q208 441 227 422Q281 367 358 363H368Q417 363 450 385T484 438V445Q480 472 451 492Q439 500 424 505L241 570Q196 586 159 617Q80
680 80 770Q80 860 158 923T348 987Q478 987 572 902Z" />
<glyph unicode="t" glyph-name="t" horiz-adv-x="580" d="M200 1195L190 1275H280Q313 1275 336 1252T360 1195V977H480Q513 977 536 954T560 897Q560 864 537 841T480 817H360V299Q360 266 337 243T280 219Q247 219 224 242T200 299V817H100Q67 817 44 840T20
897Q20 930 43 953T100 977H200V1195Z" />
<glyph unicode="u" glyph-name="u" horiz-adv-x="928" d="M728 219Q695 219 672 242T648 299V339Q635 321 619 304Q538 219 424 219Q298 219 209 308T120 523V907Q120 940 143 963T200 987Q233 987 256 964T280 907V543Q280 475 328 427T444 379Q529 379 588 439T648
583V907Q648 940 671 963T728 987Q761 987 784 964T808 907V299L818 219H728Z" />
<glyph unicode="v" glyph-name="v" horiz-adv-x="808" d="M47 874Q40 889 40 907Q40 940 63 963T120 987Q153 987 177 964Q187 953 193 941L404 489L615 941Q621 953 632 964Q655 987 688 987Q721 987 744 964T768 907Q768 889 761 874L477 266Q471 253 461 243Q437
219 404 219Q371 219 348 243Q337 253 331 266L47 874Z" />
<glyph unicode="w" glyph-name="w" horiz-adv-x="1256" d="M46 877Q40 891 40 907Q40 940 63 963T120 987Q153 987 177 964Q188 952 194 938L374 507L554 938Q560 952 572 964Q595 987 628 987Q661 987 685 964Q696 952 702 938L882 507L1062 938Q1068 952 1080
964Q1103 987 1136 987Q1169 987 1192 964T1216 907Q1216 891 1210 877L956 269Q950 254 939 243Q915 219 882 219Q849 219 826 243Q814 254 808 269L628 700L448 269Q442 254 431 243Q407 219 374 219Q341 219 318 243Q306 254 300 269L46 877Z" />
<glyph unicode="x" glyph-name="x" horiz-adv-x="728" d="M183 250Q180 246 177 243Q153 219 120 219Q87 219 64 242T40 299Q40 327 57 349L261 604L57 858Q40 879 40 907Q40 940 63 963T120 987Q153 987 177 964L183 957L364 731L545 957L552 964Q575 987 608
987Q641 987 664 964T688 907Q688 879 671 858L467 604L671 349Q688 327 688 299Q688 266 665 243T608 219Q575 219 552 243Q548 246 545 250L364 476L183 250Z" />
<glyph unicode="y" glyph-name="y" horiz-adv-x="808" d="M47 874Q40 889 40 907Q40 940 63 963T120 987Q153 987 177 964Q187 953 193 941L404 490L615 941Q621 953 632 964Q655 987 688 987Q721 987 744 964T768 907Q768 889 761 874L290 -132Q285 -143 275
-153Q251 -177 218 -177Q185 -177 162 -154T138 -97Q138 -79 145 -63L315 300L47 874Z" />
<glyph unicode="z" glyph-name="z" horiz-adv-x="768" d="M120 817Q87 817 64 840T40 897Q40 930 63 953T120 977H648Q681 977 704 954T728 897Q728 867 708 844L299 389H648Q681 389 704 366T728 309Q728 276 705 253T648 229H120Q87 229 64 252T40 309Q40 340
61 363L469 817H120Z" />
<glyph unicode="{" glyph-name="braceleft" horiz-adv-x="720" d="M240 589Q307 589 353 542T400 429V143Q400 77 446 30T560 -17Q593 -17 616 -40T640 -97Q640 -130 617 -153T560 -177Q428 -177 334 -84T240 143V429Q240 462 217 485T160 509Q127 509 104 532T80
589Q80 622 103 645T160 669Q194 669 217 692T240 749V1035Q240 1168 334 1261T560 1355Q593 1355 616 1332T640 1275Q640 1242 617 1219T560 1195Q493 1195 447 1148T400 1035V749Q400 683 354 636T240 589Z" />
<glyph unicode="|" glyph-name="bar" horiz-adv-x="352" d="M120 1467Q120 1490 136 1506T176 1523Q199 1523 215 1507T232 1467V91Q232 68 216 52T176 35Q153 35 137 51T120 91V1467Z" />
<glyph unicode="}" glyph-name="braceright" horiz-adv-x="720" d="M480 589Q413 589 367 636T320 749V1035Q320 1101 274 1148T160 1195Q127 1195 104 1218T80 1275Q80 1308 103 1331T160 1355Q292 1355 386 1262T480 1035V749Q480 716 503 693T560 669Q593 669
616 646T640 589Q640 556 617 533T560 509Q526 509 503 486T480 429V143Q480 10 386 -83T160 -177Q127 -177 104 -154T80 -97Q80 -64 103 -41T160 -17Q227 -17 273 30T320 143V429Q320 495 366 542T480 589Z" />
<glyph unicode="~" glyph-name="tilde" horiz-adv-x="968" d="M252 550Q248 545 243 540Q222 519 192 519Q162 519 141 540T120 591Q120 615 133 633L165 677Q176 693 190 708Q255 773 349 773Q419 773 472 737L576 669Q595 657 619 657Q652 657 676 681Q681 686
685 691L716 736Q720 741 725 746Q746 767 776 767Q806 767 827 746T848 695Q848 671 835 653L803 609Q792 593 778 579Q713 513 619 513Q549 513 496 549L392 616Q373 629 349 629Q316 629 293 606Q287 600 283 595L252 550Z" />
</font>
</defs>
</svg>
